<svg width="40" height="40" viewBox="0 0 40 40" fill="none" xmlns="http://www.w3.org/2000/svg">
<path d="M37.3538 10.0629C37.2989 11.2559 37.0485 12.5655 36.4835 13.8365C37.2037 15.7559 37.6 17.8323 37.6 20.0002C37.6 29.7048 29.7047 37.6002 20 37.6002C10.2953 37.6002 2.4 29.7048 2.4 20.0002C2.4 14.9263 4.56089 10.3499 8.00742 7.13499C7.72036 6.78611 7.15337 6.00649 6.82588 4.95898C2.64395 8.62476 0 14.0021 0 20.0002C0 31.0459 8.9543 40.0002 20 40.0002C31.0457 40.0002 40 31.0459 40 20.0002C40 16.3819 39.0343 12.9911 37.3538 10.0629Z" fill="white"/>
<path d="M9.38674 3.62564C10.7609 4.68633 10.5886 4.33404 11.7822 4.73972C14.1635 5.54912 14.2647 8.24749 14.2647 8.24749C12.3647 6.96675 11.183 7.48396 10.8354 7.66231C10.7921 7.68455 10.804 7.74424 10.8512 7.75633C11.5481 7.93497 11.6524 8.5388 11.6524 8.5388C11.6524 8.5388 11.0619 8.63821 9.75964 9.18912C8.51589 9.71527 7.72282 10.7362 7.50217 11.0474C7.47595 11.0844 7.50925 11.1315 7.55442 11.1274C8.75788 11.0194 9.18459 11.4813 9.18459 11.4813C9.18459 11.4813 8.14758 11.9313 6.82258 13.1397C4.85119 14.9375 4.08454 17.2668 3.89611 17.9374C3.87522 18.0118 3.9508 18.0745 4.02111 18.0426C4.29865 17.9167 4.80866 17.7135 4.79367 17.929C4.78635 18.0337 3.91887 23.148 6.51604 27.5772C9.83508 33.2375 15.8516 34.8205 17.0943 35.0933C17.186 35.1134 17.2597 35.021 17.2186 34.9365C16.8655 34.2114 15.1734 30.9311 15.2846 27.2147C15.4245 22.5361 17.8396 19.5904 18.3346 18.8313C18.3836 18.7562 18.325 18.6592 18.2356 18.6654L16.5528 19.2649C16.5145 19.2785 16.474 19.2544 16.4713 19.2138C16.4287 18.5612 16.4062 13.9778 23.9665 12.293C24.3179 12.2147 25.0679 10.398 26.9346 9.998C29.5061 9.44698 33.9211 9.21473 33.9596 9.96468C34.0096 10.9397 34.8441 11.0286 34.6679 11.4813C34.1915 12.7056 33.5049 13.6562 32.6718 14.4065C32.4764 14.5825 32.2729 14.7474 32.0622 14.9024C30.5587 16.0077 28.6866 16.6003 26.7449 17.0244C24.7974 17.4497 19.1559 19.8919 18.058 26.4907C17.4377 30.2196 19.7997 34.5685 20.1636 35.2103C20.1933 35.2627 20.2431 35.2951 20.3031 35.3004C21.1624 35.3762 27.7951 35.7092 32.8017 28.5772C36.2302 23.6933 35.4714 18.331 35.0525 16.4481C35.0227 16.3143 34.8287 16.3237 34.8114 16.4596C34.6419 17.7869 34.0001 20.7793 31.5726 23.7783C27.6514 28.6229 24.2783 29.7258 24.2783 29.7258C24.084 27.1024 23.807 22.0201 32.0366 17.0775C33.8706 15.976 34.9188 14.5511 35.4979 13.128C35.8058 12.3712 35.9811 11.615 36.0713 10.9081C36.2722 9.33497 35.1913 8.28052 33.6179 8.08133C32.5247 7.94295 30.7813 8.26851 29.1028 8.26468C27.6182 8.26128 26.0925 8.5826 25.3346 8.22718C23.7412 7.47989 22.3921 6.63157 21.9849 6.28255C21.9262 6.23225 21.855 6.20808 21.7778 6.21094C21.4149 6.22437 20.3252 6.29844 19.3469 6.70701C19.3469 6.70701 17.3779 3.99253 13.5251 3.33548C9.85031 2.70872 8.93176 0.539062 8.93176 0.539062C8.93176 0.539062 8.01657 0.951758 7.79821 3.00051C7.58752 4.9771 9.05022 6.50745 9.05022 6.50745C8.66272 4.78531 9.38674 3.62564 9.38674 3.62564ZM20.0035 9.28897C20.6428 8.87525 20.9535 8.62627 21.4802 8.63721C21.4836 8.64607 21.5534 8.68987 22.008 8.89239C22.6162 9.09644 22.7092 9.13741 22.7092 9.13741C22.7092 9.13741 22.6687 9.26705 22.5635 9.46556C22.5465 9.49764 22.5158 9.55413 22.4746 9.62357C22.34 9.85084 22.093 10.2168 21.8466 10.3195C21.8466 10.3195 21.0803 10.5056 20.1095 10.2393C19.776 10.1479 18.912 9.71785 18.912 9.71785C18.876 9.66712 19.5763 9.56548 20.0035 9.28897Z" fill="white"/>
<path d="M16.7706 2.7074C17.8184 2.51074 18.896 2.4 20.0001 2.4C24.3091 2.4 28.2591 3.95899 31.3219 6.53931C31.9082 6.49087 32.4677 6.4471 32.9859 6.4471C33.2971 6.4471 33.5697 6.46233 33.8197 6.49436C34.0822 6.52757 34.334 6.58018 34.5771 6.64646C34.6499 6.60152 34.7169 6.5586 34.7737 6.5202C31.1163 2.51406 25.8521 0 20.0001 0C17.3669 0 14.857 0.517481 12.5547 1.44273C12.9114 1.56831 13.3223 1.67754 13.7945 1.75803C14.9255 1.95095 15.9176 2.29688 16.7706 2.7074Z" fill="white"/>
</svg>
