<svg width="40" height="40" viewBox="0 0 40 40" fill="none" xmlns="http://www.w3.org/2000/svg">
<g clip-path="url(#clip0)">
<path d="M20 39.2C30.6039 39.2 39.2 30.6039 39.2 20C39.2 9.39612 30.6039 0.799988 20 0.799988C9.39614 0.799988 0.800003 9.39612 0.800003 20C0.800003 30.6039 9.39614 39.2 20 39.2Z" stroke="white" stroke-width="2" stroke-miterlimit="10" stroke-linecap="round"/>
<path d="M18.8264 24.3256V23.1496C18.8264 22.0008 19.084 21.3992 19.6864 20.5664L21.6096 17.9264C22.6128 16.5496 22.9568 15.8896 22.9568 14.9136C22.9568 13.2784 21.8096 12.2456 20.1736 12.2456C18.5672 12.2456 17.5344 13.2208 17.1904 14.9712C17.1616 15.1432 17.0472 15.2296 16.8744 15.2008L15.0672 14.8848C14.8944 14.856 14.8088 14.7416 14.8368 14.5688C15.268 11.8144 17.248 10.0064 20.232 10.0064C23.3296 10.0064 25.424 12.0432 25.424 14.884C25.424 16.2616 24.9376 17.2656 23.9616 18.6144L22.0392 21.2544C21.4656 22.0288 21.2928 22.4304 21.2928 23.4056V24.3232C21.2928 24.4952 21.1784 24.6096 21.0064 24.6096H19.1128C18.9408 24.6128 18.8264 24.4976 18.8264 24.3256ZM18.6832 27.0808C18.6832 26.9088 18.7976 26.7944 18.9704 26.7944H21.1512C21.3232 26.7944 21.4376 26.9096 21.4376 27.0808V29.548C21.4376 29.7208 21.3224 29.8344 21.1512 29.8344H18.9704C18.7968 29.8344 18.6832 29.72 18.6832 29.548V27.0808Z" fill="white"/>
</g>
<defs>
<clipPath id="clip0">
<rect width="40" height="40" fill="white"/>
</clipPath>
</defs>
</svg>
