<?xml version="1.0" encoding="UTF-8"?>
<svg width="31px" height="32px" viewBox="0 0 31 32" version="1.1" xmlns="http://www.w3.org/2000/svg" xmlns:xlink="http://www.w3.org/1999/xlink">
    <!-- Generator: Sketch 48.2 (47327) - http://www.bohemiancoding.com/sketch -->
    <title>gg</title>
    <desc>Created with Sketch.</desc>
    <defs></defs>
    <g id="Отбивки" stroke="none" stroke-width="1" fill="none" fill-rule="evenodd" transform="translate(-800.000000, -356.000000)">
        <path d="M815.434118,369.933036 L829.99885,369.933036 C830.159565,370.830362 830.239921,371.687496 830.239921,372.504464 C830.239921,375.410729 829.630552,378.005569 828.411796,380.289062 C827.19304,382.572556 825.455334,384.357136 823.198627,385.642857 C820.941919,386.928578 818.353775,387.571429 815.434118,387.571429 C813.331429,387.571429 811.329216,387.166299 809.427421,386.356027 C807.525626,385.545755 805.885017,384.4509 804.505546,383.071429 C803.126075,381.691957 802.03122,380.051349 801.220948,378.149554 C800.410676,376.247758 800.005546,374.245546 800.005546,372.142857 C800.005546,370.040168 800.410676,368.037956 801.220948,366.136161 C802.03122,364.234365 803.126075,362.593757 804.505546,361.214286 C805.885017,359.834815 807.525626,358.739959 809.427421,357.929688 C811.329216,357.119416 813.331429,356.714286 815.434118,356.714286 C819.451995,356.714286 822.900621,358.060254 825.7801,360.752232 L821.581439,364.790179 C819.934109,363.196421 817.885023,362.399554 815.434118,362.399554 C813.70643,362.399554 812.109348,362.834817 810.642823,363.705357 C809.176298,364.575897 808.014479,365.757805 807.157332,367.251116 C806.300185,368.744427 805.871618,370.374991 805.871618,372.142857 C805.871618,373.910723 806.300185,375.541287 807.157332,377.034598 C808.014479,378.527909 809.176298,379.709817 810.642823,380.580357 C812.109348,381.450897 813.70643,381.886161 815.434118,381.886161 C816.599302,381.886161 817.67072,381.725448 818.648403,381.404018 C819.626087,381.082588 820.42965,380.680806 821.059118,380.198661 C821.688585,379.716515 822.237687,379.167414 822.706439,378.551339 C823.175191,377.935265 823.520054,377.352681 823.741037,376.803571 C823.962021,376.254462 824.112689,375.732145 824.193046,375.236607 L815.434118,375.236607 L815.434118,369.933036 Z" id="gg" fill="#ffffff"></path>
    </g>
</svg>
